<svg width="49" height="49" viewBox="0 0 49 49" fill="none" xmlns="http://www.w3.org/2000/svg">
<g clip-path="url(#clip0_84_3024)">
<path d="M23.6365 22.1799C21.2111 22.1799 19.1348 20.1733 19.1348 17.6741C19.1348 15.1748 21.1395 13.1682 23.6365 13.1682C26.1335 13.1682 28.1382 15.1748 28.1382 17.6741C28.1382 20.1733 26.0708 22.1799 23.6365 22.1799ZM23.6365 15.0315C22.1329 15.0315 20.9247 16.2497 20.9247 17.7457C20.9247 19.2417 22.1419 20.46 23.6365 20.46C25.1311 20.46 26.3483 19.2417 26.3483 17.7457C26.3483 16.2497 25.1311 15.0315 23.6365 15.0315Z" fill="#7F879E"/>
<path d="M30.3488 33.8343H16.9152C16.414 33.8343 15.9844 33.4043 15.9844 32.9027V28.3968C15.9844 25.4676 18.4098 23.031 21.3453 23.031H25.847C28.7736 23.031 31.2079 25.4586 31.2079 28.3968V32.9027C31.2079 33.4043 30.8499 33.8343 30.3488 33.8343ZM17.8459 32.0427H29.4896V28.4685C29.4896 26.4619 27.9144 24.8943 25.9186 24.8943H21.4169C19.4121 24.8943 17.8459 26.4709 17.8459 28.4685V32.0427Z" fill="#7F879E"/>
<path d="M39.9698 44.8436C39.3344 44.8436 38.7974 44.3061 38.7974 43.6701V36.1723C38.7974 35.5363 39.3344 34.9988 39.9698 34.9988C40.6052 34.9988 41.1422 35.5363 41.1422 36.1723V43.6701C41.1422 44.3061 40.6052 44.8436 39.9698 44.8436Z" fill="#7F879E"/>
<path d="M43.7645 41.0452H36.2735C35.6381 41.0452 35.1011 40.4988 35.1011 39.8717C35.1011 39.2447 35.6381 38.6982 36.2735 38.6982H43.7645C44.3999 38.6982 44.9369 39.2357 44.9369 39.8717C44.8474 40.5077 44.3014 41.0452 43.7645 41.0452Z" fill="#7F879E"/>
<path d="M23.7348 47.4592C22.3834 47.4592 21.1215 47.3697 19.7611 47.1009C14.8924 46.2857 10.4712 44.0283 6.94502 40.5079C2.43434 35.9931 0 30.1166 0 23.7117C0 17.3068 2.43434 11.4214 6.94502 6.90658C16.1454 -2.30219 31.2168 -2.30219 40.4172 6.90658C43.9344 10.4271 46.1898 14.8523 47.0042 19.7344C47.8186 24.5179 47.1832 29.3104 45.1068 33.7356C44.9279 34.0044 44.7489 34.2821 44.3819 34.3717C44.1134 34.4612 43.7465 34.3717 43.478 34.2821C40.7752 32.5622 37.3384 33.019 35.0831 35.1868C32.8278 37.4442 32.4698 40.8751 34.1792 43.5894C34.3582 43.8581 34.3582 44.2165 34.2687 44.4942C34.1792 44.7629 34.0002 45.0406 33.6332 45.2197C30.5635 46.662 27.2252 47.4771 23.7079 47.4771L23.7348 47.4592ZM23.7348 2.30219C18.2307 2.30219 12.7266 4.38044 8.57388 8.53693C4.51068 12.6038 2.25534 17.9338 2.25534 23.7117C2.25534 29.4896 4.51068 34.8196 8.57388 38.8865C14.615 44.9331 23.8243 46.8322 31.6732 43.5804C31.0378 42.1382 30.7693 40.5079 30.9483 38.9761C31.1273 36.8978 32.1207 34.9987 33.5616 33.5565C35.0026 32.1143 36.8999 31.2095 38.9763 30.9408C40.5067 30.7616 42.1355 31.0303 43.5764 31.6664C46.7357 23.7207 44.9279 14.5925 38.8868 8.54589C34.7341 4.3894 29.23 2.31115 23.7258 2.31115L23.7348 2.30219Z" fill="#7F879E"/>
<path d="M39.9699 49C37.5355 49 35.2802 48.0953 33.5618 46.3843C33.1143 45.9364 32.6579 45.39 32.2999 44.7629C31.217 43.043 30.7695 40.9737 30.9485 38.985C31.1275 36.9068 32.1209 35.0077 33.5618 33.5655C35.0027 32.1232 36.9001 31.2185 38.9764 30.9497C40.9633 30.7706 43.0396 31.2185 44.749 32.3024C45.286 32.6607 45.832 33.1176 46.3689 33.5655C48.0873 35.2854 48.9823 37.5428 48.9823 39.9794C48.9823 42.4159 48.0784 44.6733 46.3689 46.3933C44.6506 48.1132 42.3952 49.009 39.9609 49.009L39.9699 49ZM39.9699 33.1982C38.2515 33.1982 36.5421 33.9238 35.1907 35.1869C32.9353 37.4443 32.5773 40.8752 34.2868 43.5894C34.5552 44.0373 34.9222 44.4046 35.1907 44.7629C36.4526 46.026 38.171 46.7516 39.9699 46.7516C41.7688 46.7516 43.4871 46.026 44.749 44.7629C46.011 43.4998 46.7359 41.7799 46.7359 39.9794C46.7359 38.1788 46.011 36.4589 44.749 35.1958C44.391 34.8375 44.0241 34.5598 43.5766 34.2911C42.4042 33.5655 41.2318 33.2071 39.9699 33.2071V33.1982Z" fill="#7F879E"/>
</g>
<defs>
<clipPath id="clip0_84_3024">
<rect width="49" height="49" fill="white"/>
</clipPath>
</defs>
</svg>
