<svg width="24" height="24" viewBox="0 0 24 24" fill="none" xmlns="http://www.w3.org/2000/svg">
<g clip-path="url(#clip0_84_3584)">
<path d="M23.7663 12.2764C23.7663 11.4606 23.7001 10.6405 23.559 9.83801H12.2402V14.459H18.722C18.453 15.9493 17.5888 17.2677 16.3233 18.1055V21.1039H20.1903C22.4611 19.0138 23.7663 15.9273 23.7663 12.2764Z" fill="#4285F4"/>
<path d="M12.2396 24.0008C15.4761 24.0008 18.2054 22.9382 20.1941 21.1039L16.3271 18.1055C15.2512 18.8375 13.8622 19.252 12.244 19.252C9.1134 19.252 6.45898 17.1399 5.50656 14.3003H1.51611V17.3912C3.55323 21.4434 7.70241 24.0008 12.2396 24.0008Z" fill="#34A853"/>
<path d="M5.50277 14.3003C5.00011 12.81 5.00011 11.1962 5.50277 9.70581V6.61487H1.51674C-0.185266 10.0056 -0.185266 14.0005 1.51674 17.3913L5.50277 14.3003Z" fill="#FBBC04"/>
<path d="M12.2396 4.74966C13.9504 4.7232 15.6039 5.36697 16.843 6.54867L20.269 3.12262C18.0996 1.0855 15.2203 -0.034466 12.2396 0.000808666C7.70241 0.000808666 3.55323 2.55822 1.51611 6.61481L5.50215 9.70575C6.45016 6.86173 9.10898 4.74966 12.2396 4.74966Z" fill="#EA4335"/>
</g>
<defs>
<clipPath id="clip0_84_3584">
<rect width="24" height="24" fill="white"/>
</clipPath>
</defs>
</svg>
