<svg width="24" height="25" viewBox="0 0 24 25" fill="none" xmlns="http://www.w3.org/2000/svg">
<g clip-path="url(#clip0_84_3280)">
<path d="M12 24.5C18.6274 24.5 24 19.1274 24 12.5C24 5.87258 18.6274 0.5 12 0.5C5.37258 0.5 0 5.87258 0 12.5C0 19.1274 5.37258 24.5 12 24.5Z" fill="#4467AD"/>
<path d="M12.9281 10.8627C13.1254 10.6405 13.2872 10.4165 13.4899 10.2262C14.1121 9.63957 14.8481 9.34445 15.7085 9.35157C16.1814 9.35512 16.6472 9.3889 17.1023 9.52045C18.1441 9.8209 18.7485 10.5391 19.0383 11.556C19.2552 12.3187 19.2943 13.1027 19.2961 13.8885C19.2996 15.5453 19.2908 17.204 19.2961 18.8609C19.2961 19.0156 19.2534 19.0565 19.1005 19.0565C18.2472 19.0493 17.3921 19.0493 16.5388 19.0565C16.3876 19.0565 16.3556 19.012 16.3556 18.8698C16.361 17.2929 16.361 15.716 16.3556 14.1373C16.3556 13.7427 16.329 13.3462 16.2188 12.9622C16.0143 12.2547 15.5076 11.8938 14.7663 11.9329C13.753 11.9862 13.2268 12.4876 13.0988 13.5169C13.0685 13.7622 13.0525 14.0093 13.0543 14.2565C13.0543 15.7907 13.0543 17.3249 13.0579 18.8591C13.0579 19.012 13.0205 19.0565 12.8641 19.0565C12.0036 19.0493 11.1432 19.0493 10.2828 19.0565C10.1441 19.0565 10.105 19.0209 10.105 18.8805C10.1085 15.844 10.1085 12.8058 10.105 9.76934C10.105 9.61823 10.1548 9.58445 10.297 9.58445C11.113 9.58979 11.9308 9.59157 12.7468 9.58445C12.8979 9.58445 12.9352 9.63245 12.9334 9.77468C12.9245 10.1373 12.9299 10.5 12.9299 10.8645L12.9281 10.8627Z" fill="#FEFEFE"/>
<path d="M8.24865 14.3329C8.24865 15.8351 8.24687 17.3373 8.25221 18.8395C8.25221 19.0066 8.21132 19.0564 8.03887 19.0546C7.18554 19.0458 6.33221 19.0475 5.47709 19.0546C5.34021 19.0546 5.29932 19.0209 5.29932 18.8804C5.30287 15.8386 5.30287 12.7969 5.29932 9.75331C5.29932 9.62709 5.32954 9.58264 5.46287 9.58264C6.32865 9.58797 7.19443 9.58975 8.06021 9.58264C8.22732 9.58264 8.24865 9.64486 8.24865 9.78886C8.24509 11.3035 8.24687 12.8182 8.24687 14.3329H8.24865Z" fill="#FEFEFE"/>
<path d="M8.4853 6.56936C8.4853 7.51336 7.72085 8.28136 6.77863 8.28136C5.84885 8.28136 5.0773 7.51336 5.07374 6.58358C5.07019 5.64492 5.84174 4.87158 6.78219 4.87158C7.71552 4.87158 8.48352 5.6378 8.4853 6.56758V6.56936Z" fill="#FEFEFE"/>
</g>
<defs>
<clipPath id="clip0_84_3280">
<rect width="24" height="24" fill="white" transform="translate(0 0.5)"/>
</clipPath>
</defs>
</svg>
