<svg width="23" height="22" viewBox="0 0 23 22" fill="none" xmlns="http://www.w3.org/2000/svg">
<path d="M16.7447 1.81274C17.7095 0.816259 19.3035 0.803368 20.2843 1.78411C21.2381 2.73799 21.2559 4.27896 20.3242 5.25456L17.5456 8.16433C17.3278 8.3924 17.2189 8.50644 17.1518 8.64C17.0924 8.75823 17.057 8.88708 17.0478 9.01907C17.0373 9.16818 17.0728 9.32182 17.1437 9.62911L18.8716 17.1167C18.9444 17.4321 18.9808 17.5898 18.969 17.7423C18.9586 17.8774 18.9209 18.0089 18.8582 18.1289C18.7873 18.2645 18.6728 18.3789 18.4439 18.6078L18.0732 18.9786C17.467 19.5847 17.164 19.8878 16.8538 19.9427C16.5829 19.9906 16.3043 19.9248 16.0834 19.7608C15.8305 19.573 15.695 19.1664 15.4239 18.3532L13.4141 12.3239L10.0688 15.6692C9.86914 15.8689 9.76929 15.9687 9.7025 16.0863C9.64334 16.1905 9.60337 16.3044 9.5845 16.4227C9.5632 16.5563 9.57879 16.6966 9.60998 16.9773L9.79369 18.6307C9.82487 18.9113 9.84047 19.0517 9.81917 19.1852C9.8003 19.3035 9.76033 19.4174 9.70116 19.5216C9.63437 19.6392 9.53453 19.739 9.33484 19.9387L9.13734 20.1362C8.66428 20.6093 8.42775 20.8458 8.1649 20.9143C7.93436 20.9744 7.68993 20.9502 7.47565 20.8461C7.23134 20.7273 7.04579 20.449 6.67469 19.8924L5.10637 17.5399C5.04007 17.4404 5.00692 17.3907 4.96843 17.3456C4.93424 17.3056 4.89694 17.2683 4.85688 17.2341C4.81178 17.1956 4.76206 17.1624 4.66261 17.0961L2.31012 15.5278C1.75348 15.1567 1.47515 14.9712 1.35643 14.7269C1.2523 14.5126 1.2281 14.2681 1.28818 14.0376C1.35668 13.7747 1.59321 13.5382 2.06627 13.0652L2.26378 12.8677C2.46346 12.668 2.56331 12.5681 2.68089 12.5013C2.78505 12.4422 2.899 12.4022 3.0173 12.3833C3.15083 12.362 3.29117 12.3776 3.57184 12.4088L5.22523 12.5925C5.5059 12.6237 5.64623 12.6393 5.77977 12.618C5.89807 12.5991 6.01202 12.5592 6.11618 12.5C6.23376 12.4332 6.3336 12.3334 6.53329 12.1337L9.87861 8.78835L3.84933 6.77859C3.0361 6.50752 2.62949 6.37198 2.44169 6.11907C2.27771 5.89823 2.21193 5.6196 2.25984 5.34874C2.31471 5.03855 2.61778 4.73547 3.22393 4.12933L3.5947 3.75856C3.82359 3.52967 3.93804 3.41522 4.07363 3.34433C4.19364 3.28158 4.32514 3.24387 4.46017 3.23347C4.61272 3.22172 4.77043 3.25812 5.08584 3.3309L12.545 5.05224C12.8549 5.12377 13.0099 5.15953 13.1595 5.14889C13.304 5.13862 13.4445 5.09709 13.5713 5.02718C13.7027 4.95476 13.8133 4.84049 14.0346 4.61196L16.7447 1.81274Z" stroke="black" stroke-width="2" stroke-linecap="round" stroke-linejoin="round"/>
</svg>
