<svg width="24" height="25" viewBox="0 0 24 25" fill="none" xmlns="http://www.w3.org/2000/svg">
<g clip-path="url(#clip0_84_3242)">
<path d="M24 12.5C24 5.87253 18.6275 0.5 12 0.5C5.37253 0.5 0 5.87253 0 12.5C0 18.4898 4.38892 23.4553 10.1278 24.3575V15.9731H7.08197V12.5068H10.1278V9.86122C10.1278 6.85613 11.9186 5.19418 14.6591 5.19418C15.9751 5.19418 17.3454 5.4316 17.3454 5.4316V8.38242H15.8327C14.3403 8.38242 13.879 9.30497 13.879 10.2547V12.5068H17.2097L16.6806 15.9731H13.8858V24.3575C19.6246 23.4553 24.0136 18.4898 24.0136 12.5H24Z" fill="#337FFF"/>
<path d="M16.6738 15.9663L17.203 12.5H13.8723V10.2479C13.8723 9.29817 14.3403 8.37562 15.8259 8.37562H17.3386V5.4248C17.3386 5.4248 15.9684 5.18738 14.6524 5.18738C11.9118 5.18738 10.121 6.84933 10.121 9.85442V12.5H7.0752V15.9663H10.121V24.3507C10.7315 24.4457 11.3556 24.5 11.9932 24.5C12.6309 24.5 13.255 24.4525 13.8655 24.3507V15.9663H16.6603H16.6738Z" fill="white"/>
</g>
<defs>
<clipPath id="clip0_84_3242">
<rect width="24" height="24" fill="white" transform="translate(0 0.5)"/>
</clipPath>
</defs>
</svg>
