<svg width="24" height="25" viewBox="0 0 24 25" fill="none" xmlns="http://www.w3.org/2000/svg">
<g clip-path="url(#clip0_84_3270)">
<path d="M12 24.5C18.6274 24.5 24 19.1274 24 12.5C24 5.87258 18.6274 0.5 12 0.5C5.37258 0.5 0 5.87258 0 12.5C0 19.1274 5.37258 24.5 12 24.5Z" fill="black"/>
<path fill-rule="evenodd" clip-rule="evenodd" d="M15.1546 10.4378C16.1246 11.1297 17.3185 11.5435 18.6074 11.5435V9.06756C18.3632 9.06756 18.119 9.04043 17.8816 8.99294V10.9398C16.5927 10.9398 15.4056 10.5328 14.4288 9.8341V14.8878C14.4288 17.418 12.3802 19.4599 9.84991 19.4599C8.907 19.4599 8.03193 19.175 7.29932 18.6866C8.13369 19.5345 9.28688 20.0636 10.569 20.0636C13.0992 20.0636 15.1478 18.015 15.1478 15.4915V10.4378H15.1546ZM16.05 7.9415C15.5548 7.39882 15.2292 6.70012 15.1546 5.92002V5.6012H14.4695C14.6391 6.5848 15.2292 7.42596 16.05 7.9415ZM8.907 16.7465C8.62888 16.3802 8.47964 15.9392 8.47964 15.478C8.47964 14.3248 9.41577 13.3819 10.5757 13.3819C10.7928 13.3819 11.0031 13.4158 11.2134 13.4768V10.9466C10.976 10.9127 10.7318 10.8991 10.4876 10.9059V12.8731C10.2841 12.8053 10.067 12.7781 9.84991 12.7781C8.69672 12.7781 7.75381 13.7143 7.75381 14.8742C7.75381 15.6883 8.22187 16.4005 8.907 16.7465Z" fill="#EE1D52"/>
<path fill-rule="evenodd" clip-rule="evenodd" d="M14.4285 9.8341C15.3985 10.526 16.5924 10.9398 17.8813 10.9398V8.99294C17.1622 8.83692 16.5246 8.46383 16.0497 7.9415C15.2289 7.43274 14.6388 6.59159 14.4692 5.6012H12.6648V15.4847C12.6648 16.6379 11.7219 17.5673 10.5687 17.5673C9.89031 17.5673 9.28658 17.2417 8.89992 16.7397C8.21478 16.3937 7.74672 15.6883 7.74672 14.8674C7.74672 13.7143 8.68285 12.7713 9.84282 12.7713C10.0667 12.7713 10.277 12.8053 10.4805 12.8663V10.8991C7.99771 10.9534 5.99658 12.9816 5.99658 15.4712C5.99658 16.7193 6.49178 17.8454 7.29901 18.673C8.02485 19.1614 8.9067 19.4463 9.84961 19.4463C12.3798 19.4463 14.4285 17.3977 14.4285 14.8742V9.82053V9.8341Z" fill="white"/>
<path fill-rule="evenodd" clip-rule="evenodd" d="M17.8815 8.98613V8.45702C17.2371 8.45702 16.5994 8.27386 16.05 7.93469C16.5384 8.4638 17.176 8.83689 17.8815 8.98613ZM14.4694 5.60117C14.4558 5.5062 14.4423 5.41123 14.4287 5.31626V4.99744H11.9392V14.881C11.9392 16.0342 10.9963 16.9635 9.84307 16.9635C9.5039 16.9635 9.18507 16.8821 8.90017 16.7397C9.28004 17.2416 9.88377 17.5672 10.5689 17.5672C11.7221 17.5672 12.6582 16.6311 12.665 15.4847V5.60117H14.4694ZM10.4807 10.9126V10.3496C10.2704 10.3225 10.0601 10.3089 9.84985 10.3089C7.31961 10.3089 5.271 12.3575 5.271 14.881C5.271 16.4683 6.07823 17.8589 7.29926 18.6797C6.49203 17.8522 5.99683 16.7261 5.99683 15.4779C5.99683 12.9816 7.99118 10.9533 10.4807 10.9059V10.9126Z" fill="#69C9D0"/>
</g>
<defs>
<clipPath id="clip0_84_3270">
<rect width="24" height="24" fill="white" transform="translate(0 0.5)"/>
</clipPath>
</defs>
</svg>
