<svg width="23" height="24" viewBox="0 0 23 24" fill="none" xmlns="http://www.w3.org/2000/svg">
<g clip-path="url(#clip0_84_3277)">
<path d="M11.5217 23.4565C17.861 23.4565 23 18.3175 23 11.9783C23 5.63899 17.861 0.5 11.5217 0.5C5.18245 0.5 0.043457 5.63899 0.043457 11.9783C0.043457 18.3175 5.18245 23.4565 11.5217 23.4565Z" fill="#33CCFF"/>
<path d="M17.8677 8.04616C17.4719 8.22784 17.0307 8.33814 16.6024 8.40952C16.8036 8.37707 17.102 8.00722 17.2253 7.85799C17.407 7.63089 17.5627 7.37135 17.6471 7.09234C17.66 7.07287 17.6665 7.04043 17.6471 7.02745C17.6211 7.01448 17.6016 7.02745 17.5822 7.02745C17.102 7.28699 16.6089 7.46867 16.0833 7.60493C16.0379 7.61791 16.0055 7.60493 15.9795 7.57898C15.9341 7.52707 15.8952 7.48165 15.8497 7.44272C15.6291 7.25455 15.389 7.10532 15.123 6.99501C14.7726 6.85226 14.3898 6.79386 14.007 6.81333C13.6371 6.83928 13.2738 6.9431 12.9493 7.1118C12.6184 7.28051 12.3264 7.52058 12.0929 7.80608C11.8528 8.10455 11.6711 8.45494 11.5803 8.82478C11.4894 9.18165 11.5024 9.53852 11.5543 9.90188C11.5608 9.96028 11.5543 9.97326 11.5024 9.96028C9.43904 9.65532 7.73255 8.91562 6.34399 7.33241C6.2856 7.26104 6.25315 7.26104 6.20124 7.33241C5.59132 8.24081 5.88979 9.70723 6.64896 10.421C6.75277 10.5183 6.85659 10.6156 6.9669 10.7C6.92796 10.7065 6.42186 10.6546 5.97415 10.421C5.91575 10.382 5.88331 10.4015 5.87682 10.4729C5.87682 10.5702 5.87682 10.661 5.89628 10.7714C6.01308 11.6927 6.64896 12.5492 7.52491 12.8801C7.62873 12.9256 7.74552 12.9645 7.85583 12.9839C7.65468 13.0294 7.45354 13.0618 6.88254 13.0164C6.81117 13.0034 6.78522 13.0359 6.81117 13.1072C7.23941 14.2752 8.16728 14.6256 8.86155 14.8267C8.95239 14.8397 9.04972 14.8397 9.14056 14.8656C9.14056 14.8721 9.12759 14.8721 9.1211 14.8851C8.894 15.2355 8.08942 15.495 7.71957 15.6248C7.04476 15.8584 6.30506 15.9687 5.59132 15.8973C5.47453 15.8778 5.45506 15.8843 5.42262 15.8973C5.39018 15.9168 5.42262 15.9427 5.45506 15.9752C5.59781 16.0725 5.74705 16.1569 5.89628 16.2347C6.35048 16.4748 6.82415 16.6694 7.31728 16.8057C9.87377 17.513 12.7547 16.9939 14.6688 15.0862C16.1742 13.5874 16.7062 11.524 16.7062 9.45417C16.7062 9.37631 16.8036 9.33089 16.8555 9.28547C17.2448 8.99349 17.5627 8.63661 17.8547 8.2473C17.9196 8.15646 17.9196 8.0786 17.9196 8.04616V8.03318C17.9196 8.00074 17.9196 8.00722 17.8677 8.03318V8.04616Z" fill="white"/>
</g>
<defs>
<clipPath id="clip0_84_3277">
<rect width="22.9565" height="22.9565" fill="white" transform="translate(0.043457 0.5)"/>
</clipPath>
</defs>
</svg>
