<svg width="15" height="17" viewBox="0 0 15 17" fill="none" xmlns="http://www.w3.org/2000/svg">
<g clip-path="url(#clip0_84_3083)">
<path d="M14.9682 10.7567C14.8721 10.5295 14.7555 10.3148 14.6477 10.0939C14.4378 9.64255 14.228 9.19119 14.0211 8.73984C13.887 8.52521 13.9395 8.32952 14.0619 8.13382C14.1202 8.04229 14.1551 7.93182 14.2018 7.82766C14.4466 7.30371 14.6943 6.7766 14.9391 6.25265C15.0761 5.93386 14.9711 5.64663 14.7089 5.52669C14.5282 5.43516 14.3504 5.34047 14.1697 5.24894C13.989 5.14478 13.8112 5.04377 13.6306 4.93962C13.4615 4.84177 13.2925 4.74077 13.1206 4.64292C13.0768 4.70605 13.039 4.77233 12.9865 4.82914C13.036 4.77549 13.0739 4.70605 13.1206 4.64292C13.0244 4.59558 12.9311 4.54823 12.835 4.50089C12.7038 4.46301 12.6717 4.34623 12.6513 4.22628C12.6339 4.13475 12.6251 4.04006 12.6105 3.94853C12.5785 3.69602 12.5464 3.44667 12.5144 3.19416C12.5056 3.13419 12.4969 3.07422 12.4881 3.01425C12.4561 2.81225 12.424 2.60709 12.392 2.40508C12.3512 2.18414 12.4036 1.93479 12.2346 1.75172C12.1705 1.68544 12.118 1.58128 12.0423 1.55918C11.8995 1.52131 11.7479 1.52762 11.5993 1.51815C11.5497 1.52762 11.4973 1.54025 11.4477 1.54972C11.2029 1.59706 10.9581 1.64125 10.7133 1.68859C10.4918 1.73278 10.2704 1.77697 10.0459 1.82116C9.85652 1.84325 9.66417 1.86535 9.47474 1.88744C9.466 1.87797 9.45725 1.86851 9.44851 1.85904C9.42811 1.84325 9.40771 1.82747 9.39023 1.81169C9.27074 1.68859 9.15417 1.5655 9.03468 1.4424C8.95016 1.35087 8.86565 1.25933 8.78113 1.1678C8.62376 0.994202 8.4693 0.817447 8.31193 0.643849C8.24781 0.577566 8.1837 0.514439 8.11667 0.448156C8.01175 0.334528 7.90392 0.217744 7.79901 0.104116C7.75821 0.154617 7.71741 0.208275 7.67369 0.258776C7.71741 0.211431 7.75821 0.157774 7.79901 0.104116C7.68826 -0.0568568 7.52798 0.0220515 7.38517 0.00942619C7.29191 0.0693965 7.18408 0.110429 7.10831 0.189337C6.61288 0.716444 6.12036 1.24986 5.63075 1.78644C5.56664 1.85588 5.51127 1.89376 5.41218 1.86535C5.29269 1.83379 5.16155 1.83379 5.03623 1.82116C4.8264 1.78644 4.61948 1.75172 4.40965 1.71385C4.28142 1.68859 4.15611 1.65703 4.02788 1.63809C3.73353 1.5939 3.43919 1.54025 3.14192 1.51815C2.88838 1.49921 2.60278 1.84957 2.6086 2.12732C2.6086 2.29777 2.60278 2.47136 2.57946 2.63865C2.52992 3.02057 2.4658 3.39933 2.41043 3.77809C2.38712 3.93906 2.37546 4.10319 2.34049 4.26416C2.32592 4.33676 2.2822 4.42513 2.22683 4.4567C1.71974 4.74708 1.20682 5.02484 0.693897 5.30891C0.548181 5.38781 0.396636 5.45725 0.262578 5.54879C0.0673182 5.68451 -0.0521689 5.9528 0.0148604 6.12955C0.119776 6.39468 0.25092 6.64719 0.373322 6.90601C0.460751 7.08592 0.548181 7.26899 0.63561 7.4489C0.696811 7.57831 0.760926 7.70456 0.822127 7.83397C0.865842 7.93497 0.912471 8.03598 0.956185 8.13698C0.996986 8.22851 1.0407 8.32005 1.0815 8.41158C1.0203 8.58833 0.967843 8.77456 0.89207 8.945C0.676411 9.42161 0.449094 9.89505 0.227606 10.3685C0.169319 10.4884 0.105204 10.6052 0.0498323 10.7283C-0.0142827 10.8735 -0.02594 11.0187 0.0644039 11.1576C0.14309 11.3564 0.294635 11.4669 0.478237 11.5332C0.63561 11.6153 0.792984 11.6973 0.950357 11.7825C1.08442 11.852 1.21847 11.9214 1.35253 11.9909C1.62065 12.1487 1.88877 12.3065 2.15688 12.4643C2.28803 12.518 2.36963 12.6 2.35797 12.7705C2.35214 12.8494 2.39003 12.9314 2.40752 13.0135C2.44249 13.3007 2.47746 13.5848 2.51243 13.872C2.55615 14.1466 2.59695 14.4212 2.64066 14.6958C2.66106 14.9578 2.68729 15.2198 2.91752 15.3871C3.02244 15.4186 3.13027 15.4502 3.23518 15.4818C3.29056 15.4723 3.34884 15.4628 3.40421 15.4502C3.63444 15.406 3.86176 15.3618 4.09199 15.3176C4.44171 15.2577 4.78851 15.1977 5.13823 15.1377C5.15863 15.103 5.17612 15.0651 5.19361 15.0272C5.17612 15.062 5.15863 15.0998 5.13823 15.1377C5.34806 15.0904 5.56081 15.0273 5.72693 15.2545C5.86973 15.4123 6.01253 15.567 6.15242 15.7248C6.26316 15.8416 6.3739 15.9584 6.48465 16.0752C6.61579 16.2235 6.74694 16.3687 6.87808 16.517C6.93054 16.5802 6.983 16.6433 7.03837 16.7033C7.40849 17.1073 7.61249 17.1041 7.99135 16.6969C8.44599 16.2046 8.90353 15.7153 9.35234 15.2166C9.4456 15.1125 9.53303 15.0683 9.66417 15.103C9.78074 15.1346 9.90023 15.1472 10.0168 15.1693C10.1596 15.1945 10.3053 15.2166 10.4481 15.245C10.8707 15.3208 11.2933 15.3965 11.7159 15.4786C11.9694 15.5291 12.2812 15.3303 12.3249 15.0588C12.4357 14.3613 12.5668 13.6637 12.628 12.9567C12.6572 12.6411 12.7679 12.5022 13.0127 12.3759C13.5898 12.0824 14.1522 11.7541 14.7205 11.4385C14.9391 11.3186 15.0644 10.9935 14.9653 10.7567H14.9682ZM13.954 8.82506C13.9278 8.85662 13.9045 8.88819 13.8754 8.91975C13.9016 8.89134 13.9278 8.85978 13.954 8.82506ZM4.47668 8.61359C4.51165 8.18432 4.65154 7.97601 5.04497 7.96022C5.26063 7.98548 5.36846 8.18117 5.52001 8.30742C5.64533 8.43367 5.77355 8.55993 5.89887 8.68618C6.00379 8.79981 6.11162 8.91344 6.21653 9.02706C6.34476 9.1691 6.47299 9.31113 6.60122 9.45948C6.65951 9.52892 6.70614 9.50998 6.75859 9.45001C7.02088 9.15332 7.28317 8.85662 7.54838 8.56624C7.65912 8.4463 7.78152 8.33898 7.89518 8.21589C8.50427 7.55937 9.11045 6.8997 9.71954 6.24002C9.7516 6.2053 9.7924 6.1769 9.82737 6.14533C10.043 6.06011 10.2383 6.11693 10.419 6.25581C10.5472 6.46097 10.6259 6.67244 10.4889 6.90601C10.4481 6.97545 10.3869 7.03226 10.3316 7.09223C9.42228 8.08016 8.5101 9.06494 7.60083 10.0529C7.43763 10.2296 7.28609 10.419 7.12288 10.5989C6.84894 10.8988 6.66825 10.9272 6.32145 10.7252C6.28065 10.7757 6.24567 10.8325 6.19905 10.8798C6.24276 10.8325 6.28065 10.7757 6.32145 10.7252C6.1903 10.5831 6.05916 10.4379 5.92801 10.2959C5.76481 10.1192 5.5987 9.9424 5.43549 9.76249C5.30726 9.62045 5.17903 9.47526 5.0508 9.33323C4.96046 9.22907 4.86429 9.13122 4.77977 9.02391C4.67486 8.89134 4.57868 8.74931 4.4796 8.61359C4.44463 8.6483 4.40674 8.67671 4.37468 8.71459C4.40674 8.67987 4.44463 8.6483 4.4796 8.61359H4.47668ZM10.5618 6.12324C10.5385 6.14849 10.5122 6.17059 10.4889 6.19268C10.5152 6.17059 10.5385 6.14849 10.5618 6.12324Z" fill="#08A6F4"/>
<path d="M9.82727 6.14537C10.0429 6.06015 10.2382 6.11696 10.4189 6.25584C10.5471 6.461 10.6258 6.67248 10.4888 6.90605C10.448 6.97549 10.3868 7.0323 10.3314 7.09227C9.42218 8.0802 8.50999 9.06498 7.60073 10.0529C7.43753 10.2297 7.28598 10.419 7.12278 10.599C6.84883 10.8988 6.66815 10.9272 6.32134 10.7252C6.1902 10.5832 6.05905 10.438 5.92791 10.2959C5.76471 10.1192 5.59859 9.94244 5.43539 9.76253C5.30716 9.62049 5.17893 9.4753 5.0507 9.33326C4.96035 9.22911 4.86418 9.13126 4.77967 9.02394C4.67475 8.89138 4.57858 8.74934 4.47949 8.61362C4.51446 8.18436 4.65435 7.97604 5.04778 7.96026C5.26344 7.98551 5.37127 8.1812 5.52282 8.30746C5.64813 8.43371 5.77636 8.55996 5.90168 8.68622C6.0066 8.79984 6.11443 8.91347 6.21934 9.0271C6.34757 9.16914 6.4758 9.31117 6.60403 9.45952C6.66232 9.52896 6.70895 9.51002 6.7614 9.45005C7.02369 9.15335 7.28598 8.85666 7.55118 8.56628C7.66193 8.44634 7.78433 8.33902 7.89799 8.21592C8.50708 7.55941 9.11326 6.89973 9.72235 6.24006C9.75441 6.20534 9.79521 6.17693 9.83018 6.14537H9.82727Z" fill="white"/>
</g>
<defs>
<clipPath id="clip0_84_3083">
<rect width="15" height="17" fill="white"/>
</clipPath>
</defs>
</svg>
