<svg width="375" height="93" viewBox="0 0 375 93" fill="none" xmlns="http://www.w3.org/2000/svg">
<path fill-rule="evenodd" clip-rule="evenodd" d="M105.505 35.3259C105.548 35.18 105.586 35.0342 105.625 34.8883C106.044 33.3324 106.41 31.7538 106.714 30.1589C107.635 18.3534 113.945 7.69857 123.722 0H-21V85.365C-15.0973 87.7864 -8.8404 89.6794 -2.3255 90.9728C4.51668 92.3309 11.6438 93.0344 18.9442 92.9987C60.5787 92.7977 96.2258 68.7134 105.509 35.3291M315.503 57.514C361.966 59.3551 386.327 44.4313 407.181 28.6938C421.724 17.7213 434.561 6.3501 452 0H196.887C221.738 18.4733 242.445 51.4621 305.399 56.8722C308.88 57.1704 312.245 57.3843 315.507 57.5107L315.503 57.514Z" fill="#FFC700" fill-opacity="0.4"/>
</svg>
