<svg width="24" height="25" viewBox="0 0 24 25" fill="none" xmlns="http://www.w3.org/2000/svg">
<path d="M14.5299 9.96992L9.46992 15.0299C8.81992 14.3799 8.41992 13.4899 8.41992 12.4999C8.41992 10.5199 10.0199 8.91992 11.9999 8.91992C12.9899 8.91992 13.8799 9.31992 14.5299 9.96992Z" stroke="#7F879E" stroke-width="1.5" stroke-linecap="round" stroke-linejoin="round"/>
<path d="M17.8198 6.26998C16.0698 4.94998 14.0698 4.22998 11.9998 4.22998C8.46984 4.22998 5.17984 6.30998 2.88984 9.90998C1.98984 11.32 1.98984 13.69 2.88984 15.1C3.67984 16.34 4.59984 17.41 5.59984 18.27" stroke="#7F879E" stroke-width="1.5" stroke-linecap="round" stroke-linejoin="round"/>
<path d="M8.41992 20.0299C9.55992 20.5099 10.7699 20.7699 11.9999 20.7699C15.5299 20.7699 18.8199 18.6899 21.1099 15.0899C22.0099 13.6799 22.0099 11.3099 21.1099 9.89993C20.7799 9.37993 20.4199 8.88993 20.0499 8.42993" stroke="#7F879E" stroke-width="1.5" stroke-linecap="round" stroke-linejoin="round"/>
<path d="M15.5099 13.2C15.2499 14.61 14.0999 15.76 12.6899 16.02" stroke="#7F879E" stroke-width="1.5" stroke-linecap="round" stroke-linejoin="round"/>
<path d="M9.47 15.03L2 22.5" stroke="#7F879E" stroke-width="1.5" stroke-linecap="round" stroke-linejoin="round"/>
<path d="M21.9998 2.5L14.5298 9.97" stroke="#7F879E" stroke-width="1.5" stroke-linecap="round" stroke-linejoin="round"/>
</svg>
